<svg xmlns="http://www.w3.org/2000/svg" viewBox="0 0 24 24" fill="#FF6B35">
  <path d="M11.5,1A1.5,1.5 0 0,0 10,2.5V5.5C10,6.44 10.61,7.23 11.46,7.5C11,10.24 9,12.24 6.5,13.35V13A1,1 0 0,0 5.5,12H1.5A1,1 0 0,0 .5,13V17A1,1 0 0,0 1.5,18H5.5A1,1 0 0,0 6.5,17H6.67C7.88,17.67 9.35,18 11,18H17A3,3 0 0,0 20,15A3,3 0 0,0 17,12H16.93C17.61,11.4 18.18,10.68 18.59,9.87C19.07,9.96 19.5,10 20,10A1,1 0 0,0 21,9V6A1,1 0 0,0 20,5C18.61,5 17.32,5.35 16.21,5.96C15.5,4.23 13.86,3 12,3V2.5A1.5,1.5 0 0,0 11.5,1Z" />
</svg>
