<?xml version="1.0" encoding="utf-8" ?><svg xmlns="http://www.w3.org/2000/svg" xmlns:xlink="http://www.w3.org/1999/xlink" width="305" height="207" viewBox="0 0 305 207"><defs><linearGradient id="gradient_0" gradientUnits="userSpaceOnUse" x1="1201.2534" y1="370.92923" x2="300.95779" y2="788.06793"><stop offset="0" stop-color="#551F25"/><stop offset="1" stop-color="#50383A"/></linearGradient></defs><path fill="url(#gradient_0)" transform="scale(0.202255 0.202148)" d="M679.068 193.157C666.252 201.595 626.915 231.398 613.324 216.02C598.562 198.434 596.946 169.937 596.108 148.304C594.49 106.511 642.365 110.657 669.486 96.9736C685.132 89.0795 700.38 78.3638 716.771 71.7924C724.255 68.7919 730.365 68.9683 738.305 69.0609C755.778 86.5519 772.94 128.694 782.953 151.985C804.043 142.84 806.524 151.127 824.965 157.018C823.917 149.254 816.697 137.282 821.79 131.877C823.13 131.343 824.5 130.963 825.928 131.319C841.382 135.177 851.075 141.792 860.242 153.888L861.007 153.35C871.943 142.322 880.53 164.068 886.894 171.688C894.766 174.882 904.082 176.621 912.6 176.871C924.096 153.244 940.267 104.665 964.46 91.9046C972.094 87.8781 1028.02 121.234 1038.45 125.935C1057.41 134.489 1078.1 141.367 1096.63 150.736C1100.68 152.856 1104.33 156.973 1105.08 161.614C1107.92 189.558 1088.34 224.961 1074.18 247.388C1066.45 259.619 1052.68 275.041 1040.03 278.544C1031.32 276.03 1024.91 270.863 1017.52 268.721C1011.35 282.209 1007.38 293.576 1012.15 308.344C1013.16 311.48 1017.59 329.318 1013.47 330.869C1011.16 331.742 1002.47 329.27 999.368 328.469C996.764 358.104 984.578 390.109 993.921 420.067C998.497 434.744 1009.45 447.027 1011.83 462.687C1012.8 469.108 1016.55 489.053 1005.5 489.285C1000.57 486.992 997.572 480.224 994.628 475.429C993.435 473.307 993.286 472.66 991.336 471.365L990.53 472.08L990.604 475.662C994.438 490.867 992.452 507.553 986.32 521.997C984.264 526.839 977.014 537.594 971.943 539.331C969.785 538.816 964.49 530.657 961.139 527.549C957.487 566.095 965.028 559.576 975.098 593.14C968.488 618.737 980.027 621.683 990.094 640.996C988.455 642.736 986.28 644.921 984.751 646.682C1000.06 672.862 1020.17 691.324 1043.16 710.582C1064.63 689.011 1076.15 669.118 1077.38 639.307C1077.65 632.82 1071.78 612.246 1080.93 612.426C1088.68 612.578 1099.87 626.085 1105.1 631.767C1113.02 640.365 1113.99 651.038 1118.53 661.093C1122.8 661.134 1127.7 660.795 1130.58 664.358C1139.39 675.229 1132.01 697.76 1127.69 709.108C1145.81 727.836 1120.88 746.68 1105.07 755.549C1108.51 761.787 1112.08 769.888 1102.27 773.242C1089.97 777.451 1074.18 777.204 1061.73 773.992C1061.84 786.555 1061.92 799.993 1059.12 812.296C1054.84 831.136 1050.25 847.447 1048.46 866.777C1046.52 887.699 1054.6 896.825 1056.75 915.831C1057.45 922.024 1051.97 935.999 1050.84 943.332C1067.57 952.598 1147.97 950.663 1152.43 971.297C1152.26 972.986 1151.85 974.198 1150.7 975.491C1136.35 991.69 1051.84 995.269 1028.86 997.711C1015.08 999.175 1001.5 1002.24 987.7 1003.51C966.736 1005.44 945.28 1004.32 924.232 1005.01C902.171 1005.72 879.985 1008.12 857.929 1008C833.392 1007.87 808.92 1005.93 784.419 1004.83C743.44 1003.01 590.579 998.552 565.182 976.905C563.257 975.265 561.509 973.119 561.458 970.472C561.42 968.469 562.378 966.807 563.734 965.395C575.83 952.799 658.521 944.627 677.616 943.761C679.509 938.345 682.453 933.355 686.278 929.078C701 912.543 718.885 911.235 739.174 909.897C731.046 902.345 725.208 896.301 719.182 886.911C717.511 884.27 716.592 882.893 714.59 880.439L712.383 880.44C707.949 877.771 708.391 867.029 706.185 861.969C704.319 857.689 702.925 858.923 698.452 856.982C689.249 832.793 725.026 793.537 722.234 785.853C718.929 784.785 713.248 789.1 710.226 790.503C685.76 801.858 696.544 754.991 699.957 744.73C693.185 745.276 683.454 747.346 677.659 744.82C669.891 736.29 691.507 713.696 697.599 706.659C669.4 708.255 672.856 699.431 687.831 681.182C694.284 673.317 697.313 665.748 700.184 656.198C685.387 655.992 681.763 655.099 669.799 646.372C651.435 659.785 638.635 665.066 615.226 663.825C597.626 662.892 588.606 659.117 575.023 648.348C568.302 656.465 563.547 669.144 560.627 679.281C541.93 744.178 556.798 825.821 508.502 879.876C492.833 897.407 470.788 907.925 447.3 909.074C402.502 911.291 374.09 880.811 360.308 841.761C351.543 816.928 349.005 793.716 347.72 767.61C344.18 767.638 340.541 767.439 336.996 767.293C312.228 769.235 288.225 769.766 263.389 770.093C236.64 770.444 207.296 780.565 180.98 769.23C173.484 766.001 166.229 756.18 163.452 748.267C161.442 734.004 162.528 712.372 162.577 697.989C162.929 637.943 163.762 577.9 165.077 517.868C165.295 503.47 164.603 489.232 164.35 474.86C164.172 464.747 169.244 459.569 178.519 457.125C182.618 448.596 186.374 445.874 194.718 441.94C210.96 438.027 252.596 442.534 270.983 442.578C304.341 442.658 338.665 443.214 371.985 444.977C380.521 445.429 393.442 450.363 394.585 460.288C396.527 477.141 396.094 495.082 396.081 512.128L395.471 624.884C405.907 619.85 418.035 611.974 428.221 608.109C418.087 623.313 410.809 627.044 395.57 635.806C395.481 635.858 395.397 639.495 395.406 639.876L395.963 689.756C396.137 700.802 397.499 734.523 392.381 742.068C386.346 747.271 383.404 748.746 375.915 751.525C373.769 751.941 373.654 751.924 371.926 753.186C371.47 757.267 373.431 768.258 373.742 773.363C376.359 816.327 393.704 884.775 448.846 881.342C469.497 880.057 486.034 865.825 496.515 848.721C537.16 780.421 507.677 690.018 561.193 627.28C562.853 582.409 603.591 544.029 648.067 541.762C668.81 540.705 685.931 551.707 703.562 561.104C705.423 556.529 706.069 555.074 709.22 551.324C702.323 542.225 693.999 531.662 689.442 521.121C688.152 518.136 688.154 514.308 686.682 510.502C679.197 508.762 677.95 515.677 675.085 521.085C671.587 527.686 667.931 543.166 657.73 534.849C646.477 525.674 646.211 514.515 644.919 501.208C640.024 508.636 637.734 515.563 633.524 523.213C632.754 524.611 632.01 524.446 630.669 524.689C630.047 524.429 629.33 524.172 628.87 523.667C609.949 502.917 613.133 487.724 611.591 464.075C607.15 469.054 601.176 480.844 596.584 487.666C584.89 449.48 592.289 438.848 609.235 405.773C605.251 405.353 598.798 412.999 592.527 410.17C591.822 408.647 591.383 406.75 592.011 405.04C601.561 379.053 630.328 369.984 651.982 357.042C653.589 356.082 656.756 353.293 657.411 351.891C667.617 330.054 667.017 304.634 671.387 281.06C661.918 283.449 637.062 296.716 629.308 291.714C624.373 281.132 650.896 259.307 658.063 252.418C654.241 252.783 637.87 254.968 637.289 249.98C635.288 232.809 672.956 222.229 685.239 217.643C680.6 209.353 679.897 202.292 679.068 193.157Z"/><path fill="#FAEFEE" transform="scale(0.202255 0.202148)" d="M194.718 441.94C210.96 438.027 252.596 442.534 270.983 442.578C304.341 442.658 338.665 443.214 371.985 444.977C380.521 445.429 393.442 450.363 394.585 460.288C396.527 477.141 396.094 495.082 396.081 512.128L395.471 624.884C405.907 619.85 418.035 611.974 428.221 608.109C418.087 623.313 410.809 627.044 395.57 635.806C395.481 635.858 395.397 639.495 395.406 639.876L395.963 689.756C396.137 700.802 397.499 734.523 392.381 742.068C386.346 747.271 383.404 748.746 375.915 751.525C375.5 748.902 375.546 747.487 375.544 744.875C359.556 728.394 380.251 659.225 364.424 641.574C355.468 631.586 321.318 613.406 306.373 613.185C291.635 612.967 272.839 620.168 258.224 624.723C256.699 625.198 253.36 628.212 252.027 629.432C249.26 644.847 250.081 673.667 253.098 689.026C257.728 694.528 261.146 696.37 268.164 698.344C285.747 703.291 304.511 707.157 322.873 706.517C329.008 706.303 336.942 703.463 343.469 702.709C345.233 704.87 344.811 705.406 345.237 708.454C347.899 712.273 347.357 713.82 347.096 718.709C347.302 715.942 347.089 713.728 348.815 711.733L349.762 711.947C351.525 715.576 351.449 718.295 351.419 722.337C350.397 728.734 349.964 750.9 347.127 753.967L347.647 767.191C344.238 767.217 340.358 767.152 336.996 767.293C312.228 769.235 288.225 769.766 263.389 770.093C236.64 770.444 207.296 780.565 180.98 769.23C173.484 766.001 166.229 756.18 163.452 748.267C161.442 734.004 162.528 712.372 162.577 697.989C162.929 637.943 163.762 577.9 165.077 517.868C165.295 503.47 164.603 489.232 164.35 474.86C164.172 464.747 169.244 459.569 178.519 457.125C182.618 448.596 186.374 445.874 194.718 441.94Z"/><path fill="#D5C3C3" transform="scale(0.202255 0.202148)" d="M336.996 767.293C312.228 769.235 288.225 769.766 263.389 770.093C236.64 770.444 207.296 780.565 180.98 769.23C173.484 766.001 166.229 756.18 163.452 748.267C161.442 734.004 162.528 712.372 162.577 697.989C162.929 637.943 163.762 577.9 165.077 517.868C165.295 503.47 164.603 489.232 164.35 474.86C164.172 464.747 169.244 459.569 178.519 457.125C176.958 474.186 177.438 489.994 178.09 507.053C178.195 509.791 178.292 519.645 178.738 521.873C178.054 573.261 177.896 624.655 178.261 676.046C178.315 694.356 177.36 712.921 177.654 731.167C177.803 740.372 182.95 745.436 190.441 750.169C194.02 752.309 196.139 753.392 199.943 755.114C220.601 758.566 340.579 748.921 347.127 753.967L347.647 767.191C344.238 767.217 340.358 767.152 336.996 767.293Z"/><path fill="#FAEFEE" transform="scale(0.202255 0.202148)" d="M178.519 457.125C182.618 448.596 186.374 445.874 194.718 441.94C195.934 443.037 196.345 443.991 197.878 443.947C204.515 443.759 209.88 445.087 213.385 451.29L211.296 453.027L207.165 449.957C196.842 463.988 199.584 481.222 199.521 497.725C199.46 513.774 199.973 529.842 199.45 545.903C198.43 554.362 198.68 570.049 198.54 579.034L198.066 659.144C197.761 681.505 194.913 705.742 196.777 727.683C197.47 735.842 203.905 742.469 206.91 748.804L207.128 750.295C205.196 752.737 202.756 753.655 199.943 755.114C196.139 753.392 194.02 752.309 190.441 750.169C182.95 745.436 177.803 740.372 177.654 731.167C177.36 712.921 178.315 694.356 178.261 676.046C177.896 624.655 178.054 573.261 178.738 521.873C178.292 519.645 178.195 509.791 178.09 507.053C177.438 489.994 176.958 474.186 178.519 457.125Z"/><defs><linearGradient id="gradient_1" gradientUnits="userSpaceOnUse" x1="176.12061" y1="635.01929" x2="194.18239" y2="635.59247"><stop offset="0" stop-color="black"/><stop offset="1" stop-color="#381E20"/></linearGradient></defs><path fill="url(#gradient_1)" transform="scale(0.202255 0.202148)" d="M178.738 521.873L180.533 521.422C185.109 526.319 180.992 572.118 183.936 581.994C184.35 592.6 183.693 602.595 183.684 613.129L183.336 692.434C183.328 697.988 183.283 703.849 183.158 709.397C182.769 726.683 181.703 734.945 195.945 746.147L194.951 746.098C193.685 746.031 192.999 745.918 191.759 745.7C190.755 747.167 190.729 748.408 190.441 750.169C182.95 745.436 177.803 740.372 177.654 731.167C177.36 712.921 178.315 694.356 178.261 676.046C177.896 624.655 178.054 573.261 178.738 521.873Z"/><path fill="#442627" transform="scale(0.202255 0.202148)" d="M178.519 457.125C182.618 448.596 186.374 445.874 194.718 441.94C195.934 443.037 196.345 443.991 197.878 443.947C204.515 443.759 209.88 445.087 213.385 451.29L211.296 453.027L207.165 449.957L206.808 448.774C198.064 445.416 190.636 450.999 187.886 459.245C186.832 462.407 186.311 468.007 186.348 471.348C186.755 508.234 183.863 545.112 183.936 581.994C180.992 572.118 185.109 526.319 180.533 521.422L178.738 521.873C178.292 519.645 178.195 509.791 178.09 507.053C177.438 489.994 176.958 474.186 178.519 457.125Z"/><path fill="#442627" transform="scale(0.202255 0.202148)" d="M190.441 750.169C190.729 748.408 190.755 747.167 191.759 745.7C192.999 745.918 193.685 746.031 194.951 746.098L195.945 746.147C199.27 747.398 203.361 748.635 206.91 748.804L207.128 750.295C205.196 752.737 202.756 753.655 199.943 755.114C196.139 753.392 194.02 752.309 190.441 750.169Z"/><defs><linearGradient id="gradient_2" gradientUnits="userSpaceOnUse" x1="219.14098" y1="419.15277" x2="443.97351" y2="585.13721"><stop offset="0" stop-color="#4A2728"/><stop offset="1" stop-color="#654446"/></linearGradient></defs><path fill="url(#gradient_2)" transform="scale(0.202255 0.202148)" d="M194.718 441.94C210.96 438.027 252.596 442.534 270.983 442.578C304.341 442.658 338.665 443.214 371.985 444.977C380.521 445.429 393.442 450.363 394.585 460.288C396.527 477.141 396.094 495.082 396.081 512.128L395.471 624.884C405.907 619.85 418.035 611.974 428.221 608.109C418.087 623.313 410.809 627.044 395.57 635.806C395.481 635.858 395.397 639.495 395.406 639.876L395.963 689.756C396.137 700.802 397.499 734.523 392.381 742.068C388.881 741.009 388.209 741.206 387.08 737.869L387.044 736.609C391.775 732.682 391.77 732.919 391.822 726.716C390.35 699.098 392.963 669.085 391.708 641.243C391.631 639.521 389.198 637.631 387.984 636.525C386.421 633.148 386.656 631.769 387.379 628.267C388.085 606.115 386.989 582.884 387.5 560.712C388.274 527.165 388.128 494.641 387.398 461.122C384.93 458.577 380.827 454.476 377.341 453.883C367.185 452.153 354.074 452.422 343.782 452.301C325.578 452.145 307.374 451.897 289.172 451.557C277.387 451.304 220.635 447.266 213.385 451.29C209.88 445.087 204.515 443.759 197.878 443.947C196.345 443.991 195.934 443.037 194.718 441.94Z"/><path fill="#907271" transform="scale(0.202255 0.202148)" d="M387.398 461.122C392.568 468.138 391.944 489.932 391.877 499.29C391.585 540.539 393.022 582.415 391.724 623.621C390.327 625.14 388.841 626.836 387.379 628.267C388.085 606.115 386.989 582.884 387.5 560.712C388.274 527.165 388.128 494.641 387.398 461.122Z"/><path fill="#20191A" transform="scale(0.202255 0.202148)" d="M391.822 726.716C394.156 713.613 390.525 643.351 393.372 639.419L395.406 639.876L395.963 689.756C396.137 700.802 397.499 734.523 392.381 742.068C388.881 741.009 388.209 741.206 387.08 737.869L387.044 736.609C391.775 732.682 391.77 732.919 391.822 726.716Z"/><path fill="#633F40" transform="scale(0.202255 0.202148)" d="M206.91 748.804C203.905 742.469 197.47 735.842 196.777 727.683C194.913 705.742 197.761 681.505 198.066 659.144L198.54 579.034C198.68 570.049 198.43 554.362 199.45 545.903C199.684 554.67 200.489 567.251 200.853 576.04C201.615 594.442 199.162 641.357 204.013 656.397C204.171 667.029 204.184 677.663 204.051 688.296C203.757 708.471 200.736 729.31 214.809 745.838C255.224 749.835 306.853 740.669 345.391 744.799L345.237 708.454C347.899 712.273 347.357 713.82 347.096 718.709C347.302 715.942 347.089 713.728 348.815 711.733L349.762 711.947C351.525 715.576 351.449 718.295 351.419 722.337C350.397 728.734 349.964 750.9 347.127 753.967C340.579 748.921 220.601 758.566 199.943 755.114C202.756 753.655 205.196 752.737 207.128 750.295L206.91 748.804Z"/><path fill="#070605" transform="scale(0.202255 0.202148)" d="M207.165 449.957L211.296 453.027C208.43 457.001 205.206 462.171 204.792 467.13C203.199 486.186 204.439 507.116 204.442 526.437L204.013 656.397C199.162 641.357 201.615 594.442 200.853 576.04C200.489 567.251 199.684 554.67 199.45 545.903C199.973 529.842 199.46 513.774 199.521 497.725C199.584 481.222 196.842 463.988 207.165 449.957Z"/><path fill="#907271" transform="scale(0.202255 0.202148)" d="M387.984 636.525C389.198 637.631 391.631 639.521 391.708 641.243C392.963 669.085 390.35 699.098 391.822 726.716C391.77 732.919 391.775 732.682 387.044 736.609C387.91 731.677 387.948 710.64 388.038 704.842C388.39 682.247 389.13 659.065 387.984 636.525Z"/><path fill="#442627" transform="scale(0.202255 0.202148)" d="M375.544 744.875C379.305 743.203 385.156 741.218 387.08 737.869C388.209 741.206 388.881 741.009 392.381 742.068C386.346 747.271 383.404 748.746 375.915 751.525C375.5 748.902 375.546 747.487 375.544 744.875Z"/><path fill="#FAEFEE" transform="scale(0.202255 0.202148)" d="M263.265 496.784C271.359 494.259 324.729 495.524 334.052 496.869C336.162 499.275 337.967 501.114 339.455 503.961C342.949 509.302 346.724 514.87 350.087 520.259C358.543 534.836 360.228 540.993 353.335 557.221C350.585 564.602 347.498 572.732 343.753 579.691L339.029 588.648L335.792 596.191C315.157 596.274 294.687 596.696 274.123 594.878C271.072 594.608 267.171 594.099 264.208 594.051C260.871 591.503 259.307 589.009 257.371 585.423C253.009 577.849 249.164 569.776 245.291 561.924C241.909 552.42 242.177 546.179 243.169 536.467C243.157 534.831 244.217 530.357 244.597 528.537L248.991 519.407L251.15 515.699L254.912 509.633C257.266 505.291 260.452 500.889 263.265 496.784Z"/><path fill="#655257" transform="scale(0.202255 0.202148)" d="M261.829 582.681C263.28 585.191 263.747 586.608 266.371 587.84C287.569 586.611 308.63 589.702 329.637 587.609C330.848 587.488 333.227 585.554 334.171 584.779C335.897 586.387 336.928 587.523 339.029 588.648L335.792 596.191C315.157 596.274 294.687 596.696 274.123 594.878C271.072 594.608 267.171 594.099 264.208 594.051C260.871 591.503 259.307 589.009 257.371 585.423L261.829 582.681Z"/><path fill="#20191A" transform="scale(0.202255 0.202148)" d="M261.829 582.681C263.28 585.191 263.747 586.608 266.371 587.84L268.24 588.702C267.9 591.129 266.31 592.179 264.208 594.051C260.871 591.503 259.307 589.009 257.371 585.423L261.829 582.681Z"/><defs><linearGradient id="gradient_3" gradientUnits="userSpaceOnUse" x1="311.38388" y1="512.62769" x2="276.78229" y2="484.88812"><stop offset="0" stop-color="#5F4E4C"/><stop offset="1" stop-color="#867477"/></linearGradient></defs><path fill="url(#gradient_3)" transform="scale(0.202255 0.202148)" d="M263.265 496.784C271.359 494.259 324.729 495.524 334.052 496.869C336.162 499.275 337.967 501.114 339.455 503.961C335.832 503.664 335.625 503.491 332.705 505.221C331.583 503.982 329.799 503.025 328.334 502.123C315.57 503.619 280.558 502.548 267.233 502.248C266.271 499.736 265.083 498.754 263.265 496.784Z"/><path fill="#442627" transform="scale(0.202255 0.202148)" d="M334.052 496.869C336.162 499.275 337.967 501.114 339.455 503.961C335.832 503.664 335.625 503.491 332.705 505.221C331.583 503.982 329.799 503.025 328.334 502.123C326.44 502.065 325.194 502.176 323.434 501.444C322.658 498.952 322.591 500.128 323.518 497.791C325.714 496.64 330.512 497.169 334.052 496.869Z"/><path fill="#655257" transform="scale(0.202255 0.202148)" d="M350.087 520.259C358.543 534.836 360.228 540.993 353.335 557.221C352.461 556.12 349.563 554.937 348.148 554.253C350.668 541.234 349.897 535.328 345.419 523.233L350.087 520.259Z"/><path fill="#070605" transform="scale(0.202255 0.202148)" d="M245.291 561.924C247.626 559.762 248.02 559.323 251.176 558.413C253.9 568.836 256.422 573.496 261.829 582.681L257.371 585.423C253.009 577.849 249.164 569.776 245.291 561.924Z"/><path fill="#070605" transform="scale(0.202255 0.202148)" d="M348.148 554.253C349.563 554.937 352.461 556.12 353.335 557.221C350.585 564.602 347.498 572.732 343.753 579.691L339.229 576.252C343.335 568.188 345.715 562.982 348.148 554.253Z"/><path fill="#070605" transform="scale(0.202255 0.202148)" d="M332.705 505.221C335.625 503.491 335.832 503.664 339.455 503.961C342.949 509.302 346.724 514.87 350.087 520.259L345.419 523.233C341.86 517.528 336.719 510.773 332.705 505.221Z"/><path fill="#442627" transform="scale(0.202255 0.202148)" d="M243.169 536.467C245.742 538.688 245.994 543.488 246.505 546.947C248.862 551.565 249.941 553.451 251.176 558.413C248.02 559.323 247.626 559.762 245.291 561.924C241.909 552.42 242.177 546.179 243.169 536.467Z"/><path fill="#655257" transform="scale(0.202255 0.202148)" d="M244.597 528.537L251.276 530.514C250.334 538.113 250.482 540.391 246.505 546.947C245.994 543.488 245.742 538.688 243.169 536.467C243.157 534.831 244.217 530.357 244.597 528.537Z"/><path fill="#20191A" transform="scale(0.202255 0.202148)" d="M263.265 496.784C265.083 498.754 266.271 499.736 267.233 502.248C264.608 505.535 261.524 509.207 259.202 512.657L254.912 509.633C257.266 505.291 260.452 500.889 263.265 496.784Z"/><path fill="#442627" transform="scale(0.202255 0.202148)" d="M248.991 519.407L254.659 520.61C253.635 523.589 252.123 527.578 251.276 530.514L244.597 528.537L248.991 519.407Z"/><path fill="#20191A" transform="scale(0.202255 0.202148)" d="M334.171 584.779L339.229 576.252L343.753 579.691L339.029 588.648C336.928 587.523 335.897 586.387 334.171 584.779Z"/><path fill="#070605" transform="scale(0.202255 0.202148)" d="M254.912 509.633L259.202 512.657L257.017 516.224L254.659 520.61L248.991 519.407L251.15 515.699L254.912 509.633Z"/><path fill="#20191A" transform="scale(0.202255 0.202148)" d="M251.15 515.699L257.017 516.224L254.659 520.61L248.991 519.407L251.15 515.699Z"/><path fill="#442627" transform="scale(0.202255 0.202148)" d="M277.039 522.532C279.353 522.484 284.767 522.141 285.498 524.855C287.453 532.109 287.104 547.517 284.249 554.2C281.534 554.209 279.863 554.391 277.299 553.369C273.888 549.404 273.806 527.354 277.039 522.532Z"/><path fill="#442627" transform="scale(0.202255 0.202148)" d="M314.793 522.808C316.772 522.773 321.878 522.645 322.761 524.084C325.901 529.204 324.155 548.014 323.612 553.549C320.48 553.51 318.509 553.644 315.507 552.577C313.309 549.943 313.005 525.35 314.793 522.808Z"/><path fill="#442627" transform="scale(0.202255 0.202148)" d="M298.09 568.29C299.127 568.433 300.161 568.602 301.189 568.798C306.884 569.904 308.684 573.206 311.713 577.731L304.509 581.609C296.486 585.099 286.207 577.505 298.09 568.29Z"/><defs><linearGradient id="gradient_4" gradientUnits="userSpaceOnUse" x1="881.91089" y1="410.14404" x2="881.58972" y2="104.6244"><stop offset="0" stop-color="#727272"/><stop offset="1" stop-color="#A1A09F"/></linearGradient></defs><path fill="url(#gradient_4)" transform="scale(0.202255 0.202148)" d="M913.121 190.255C914.171 191.019 914.548 190.929 915.862 191.156C918.131 190.01 920.431 187.266 921.486 184.994C932.803 160.611 941.934 134.982 957.182 112.611C964.294 102.176 967.385 101.56 978.638 107.087C987.7 111.538 996.398 116.629 1005.31 121.387C1017.82 128.091 1030.58 134.31 1043.57 140.031C1060.85 147.813 1082.53 153.103 1096.93 164.972C1087.86 201.948 1069.34 242.484 1039.22 266.87C1000.39 249.83 974.904 201.967 964.37 163.141C963.428 159.67 959.82 143.691 957.911 142.062L956.558 142.768C953.497 147.33 951.91 158.26 950.846 163.917L953.902 168.369C957.381 175.684 959.998 183.389 962.736 191.013C967.287 202.556 973.471 217.279 980.801 227.129C989.008 238.157 999.506 248.749 1007.58 259.903C1006.28 269.112 1005.96 271.152 1000.69 279.005C998.032 274.465 994.87 269.25 991.452 265.305C982.632 255.128 978.584 251.931 975.025 238.812C955.576 222.802 916.695 221.938 894.11 231.394C890.05 233.094 885.82 234.86 881.832 236.736C884.532 231.937 891.553 220.607 891.731 215.769C884.173 207.236 848.292 238.919 844.134 247.302C834.303 267.118 814.846 309.069 842.426 323.08C859.821 318.407 864.577 311.122 879.05 303.904C910.724 288.108 948.308 293.634 977.78 311.668C982.099 314.311 986.659 316.853 990.371 320.44C988.907 330.98 985.584 340.536 983.361 350.894C980.802 362.822 980.634 375.641 979.921 387.778C979.602 393.208 982.413 408.889 980.399 412.337C977.126 411.13 971.825 405.62 968.177 403.425C952.574 394.036 934.935 382.61 917.111 378.707C927.67 365.768 937.421 358.17 935.616 339.382C934.724 330.105 930.285 321.838 922.962 315.977C914.074 308.999 902.765 305.863 891.552 307.267C883.825 308.198 879.771 309.92 872.805 312.848C867.752 327.077 863.694 340.947 863.493 356.224C849.878 353.454 840.519 349.125 825.86 346.968C804.488 343.823 778.509 349.834 759.407 342.02C758.679 326.14 759.374 309.577 746.693 297.833C740.747 292.294 732.818 289.388 724.7 289.772C705.892 290.751 691.016 309.84 692.728 328.203C693.388 335.292 694.86 342.279 695.83 349.327C685.711 353.507 677.063 354.809 666.297 356.884C676.004 325.319 679.993 313.151 680.672 279.763C703.907 275.703 723.926 273.913 744.415 288.452C756.286 296.876 764.432 305.761 778.397 310.984C789.732 305.731 794.817 301.392 795.27 288.126C796.322 257.331 784.737 225.8 761.396 205.188C757.703 201.926 753.356 199.318 748.29 199.821C741.119 203.941 746.433 214.02 749.049 219.723C737.305 213.973 723.573 205.271 710.852 203.053C705.396 202.102 691.945 204.386 688.492 200.633L688.185 198.221C696.619 191.515 703.235 195.152 706.3 190.683C709.483 186.533 708.967 184.214 713.879 179.504C710.073 174.294 709.037 171.262 707.197 165.094C709.442 163.023 711.864 159.348 713.711 156.765C718.968 153.883 722.886 144.679 728.301 138.788C729.994 140.751 731.74 142.668 733.537 144.537C731.235 138.894 730.831 132.381 729.417 129.504L730.961 127.858L731.582 128.641C739.059 138.16 734.267 137.684 737.916 146.19C739.726 150.409 747.43 153.921 751.106 159.775C754.085 160.605 756.361 158.435 756.823 158.661C762.993 161.681 767.43 166.779 771.912 157.895C772.197 157.329 772.206 157.406 772.77 156.832C774.598 160.378 776.161 163.43 778.278 166.805C769.706 167.531 762.383 168.022 754.744 172.628L754.364 173.855C759.528 178.281 780.202 176.025 787.465 176.98C791.228 177.475 792.576 177.74 796.347 178.696C799.593 179.304 801.746 179.977 803.929 177.157C803.789 170.759 795.457 165.689 793.492 159.834L794.373 158.931C808.118 155.342 818.878 171.361 832.994 174.588C840.894 172.3 829.675 149.941 838.336 149.533C849.437 154.589 855.862 175.856 864.055 176.648L865.277 175.392C866.175 172.389 865.278 169.676 864.663 166.503C865.88 164.864 866.325 163.005 866.981 161.046L867.424 161.666C870.519 166.092 872.704 175.416 874.898 177.361C884.294 185.693 899.589 183.703 913.121 190.255Z"/><path fill="#A09F9F" transform="scale(0.202255 0.202148)" d="M796.347 178.696C799.593 179.304 801.746 179.977 803.929 177.157C803.789 170.759 795.457 165.689 793.492 159.834L794.373 158.931C808.118 155.342 818.878 171.361 832.994 174.588C840.894 172.3 829.675 149.941 838.336 149.533C849.437 154.589 855.862 175.856 864.055 176.648L865.277 175.392C866.175 172.389 865.278 169.676 864.663 166.503C865.88 164.864 866.325 163.005 866.981 161.046L867.424 161.666C870.519 166.092 872.704 175.416 874.898 177.361C884.294 185.693 899.589 183.703 913.121 190.255C908.334 194.917 901.092 199.409 894.717 201.436C892.792 199.625 890.219 196.515 888.395 194.431C885.527 196.635 882.734 199.852 880.236 202.544C877.785 202.962 872.483 203.827 870.434 204.877C853.612 213.489 841.605 231.703 828.502 243.386C824.077 258.574 830.021 257.417 815.799 268.652C813.198 267.041 811.247 266.765 808.349 267.8C807.755 269.182 807.725 269.911 807.515 271.37C805.009 267.825 806.82 260.118 805.947 256.054C804.645 249.992 800.466 242.234 797.698 236.481C800.193 229.49 808.072 211.139 800.982 205.777C796.299 204.205 788.073 207.945 782.271 209.329C776.441 205.387 766.147 197.173 769.279 189.01C777.51 178.926 788.306 193.914 796.347 178.696Z"/><path fill="#B5B5B4" transform="scale(0.202255 0.202148)" d="M826.55 223.888C822.967 221.619 814.596 215.005 814.716 210.484C814.965 201.062 831.664 204.715 837.044 205.766C840.305 206.497 839.659 205.819 841.165 207.934C841.403 211.382 839.146 213.655 836.95 216.223C833.063 219.51 831.03 221.299 826.55 223.888Z"/><path fill="#D5C3C3" transform="scale(0.202255 0.202148)" d="M837.044 205.766C840.305 206.497 839.659 205.819 841.165 207.934C841.403 211.382 839.146 213.655 836.95 216.223C835.498 215.449 834.6 214.782 833.278 213.843C831.955 211.116 832.101 212.272 832.534 209.465C834.037 207.241 834.641 207.043 837.044 205.766Z"/><defs><linearGradient id="gradient_5" gradientUnits="userSpaceOnUse" x1="723.27179" y1="140.7025" x2="724.11108" y2="184.13402"><stop offset="0" stop-color="#E4D4D4"/><stop offset="1" stop-color="#FFFBFA"/></linearGradient></defs><path fill="url(#gradient_5)" transform="scale(0.202255 0.202148)" d="M728.301 138.788C729.994 140.751 731.74 142.668 733.537 144.537C736.805 149.615 733.167 160.878 739.266 166.71C740.7 168.082 740.272 174.004 739.777 175.931C736.355 189.253 721.554 187 713.879 179.504C710.073 174.294 709.037 171.262 707.197 165.094C709.442 163.023 711.864 159.348 713.711 156.765C718.968 153.883 722.886 144.679 728.301 138.788Z"/><path fill="#A09F9F" transform="scale(0.202255 0.202148)" d="M941.194 193.485C943.396 187.107 947.724 182.194 950.769 176.251C951.863 174.117 952.68 171.077 953.902 168.369C957.381 175.684 959.998 183.389 962.736 191.013C957.03 197.297 953.329 204.312 946.527 208.398C945.816 206.584 944.902 204.432 944.322 202.607L945.38 200.54C945.113 197.736 943.051 195.806 941.194 193.485Z"/><path fill="#655257" transform="scale(0.202255 0.202148)" d="M938.066 190.644C941.271 183.478 948.885 170.041 950.846 163.917L953.902 168.369C952.68 171.077 951.863 174.117 950.769 176.251C947.724 182.194 943.396 187.107 941.194 193.485C943.051 195.806 945.113 197.736 945.38 200.54L944.322 202.607C941.209 199.698 939.648 194.665 938.066 190.644Z"/><path fill="#A09F9F" transform="scale(0.202255 0.202148)" d="M941.768 362.048C945.397 361.942 947.515 361.191 948.933 364.98C948.422 367.841 947.201 368.897 945.34 371.067C944.4 371.537 944.431 371.361 943.243 371.394C939.782 368.425 939.69 365.88 941.768 362.048Z"/><path fill="#6D6C6C" transform="scale(0.202255 0.202148)" d="M963.961 218.694C967.22 218.432 971.16 217.471 973.342 220.088L972.564 221.819C969.972 222.531 967.509 223.538 964.985 222.986C963.447 221.078 963.914 221.782 963.961 218.694Z"/><path fill="#D5C3C3" transform="scale(0.202255 0.202148)" d="M677.616 943.761C675.847 949.479 675.613 955.53 677.885 961.14C680.499 967.597 685.948 972.182 692.289 974.809C709.223 981.826 796.22 979.934 814.047 972.462C826.538 967.226 833.958 945.025 838.783 933.436C849.811 938.062 881.873 934.133 895.551 934.22C888.156 942.651 882.088 953.787 882.741 965.337C883.067 971.107 885.249 976.697 889.712 980.509C904.442 993.092 979.625 987.833 1001.27 985.768C1014.72 984.486 1030.07 981.797 1039.13 970.836C1045.51 963.106 1048.46 952.898 1050.84 943.332C1067.57 952.598 1147.97 950.663 1152.43 971.297C1152.26 972.986 1151.85 974.198 1150.7 975.491C1136.35 991.69 1051.84 995.269 1028.86 997.711C1015.08 999.175 1001.5 1002.24 987.7 1003.51C966.736 1005.44 945.28 1004.32 924.232 1005.01C902.171 1005.72 879.985 1008.12 857.929 1008C833.392 1007.87 808.92 1005.93 784.419 1004.83C743.44 1003.01 590.579 998.552 565.182 976.905C563.257 975.265 561.509 973.119 561.458 970.472C561.42 968.469 562.378 966.807 563.734 965.395C575.83 952.799 658.521 944.627 677.616 943.761Z"/><defs><linearGradient id="gradient_6" gradientUnits="userSpaceOnUse" x1="672.83911" y1="220.09943" x2="706.91119" y2="75.646454"><stop offset="0" stop-color="#7E7E7D"/><stop offset="1" stop-color="#A4A3A2"/></linearGradient></defs><path fill="url(#gradient_6)" transform="scale(0.202255 0.202148)" d="M623.146 211.121C609.774 191.774 605.801 164.359 607.727 140.675C608.176 135.146 613.19 128.753 618.016 125.817C632.355 117.092 651.551 116.035 666.857 109.816C691.269 99.8979 706.376 84.4062 733.318 80.0908C749.798 93.8357 765.503 136.738 772.77 156.832C772.206 157.406 772.197 157.329 771.912 157.895C767.43 166.779 762.993 161.681 756.823 158.661C756.361 158.435 754.085 160.605 751.106 159.775C747.43 153.921 739.726 150.409 737.916 146.19C734.267 137.684 739.059 138.16 731.582 128.641L730.961 127.858C732.981 123.741 731.139 114.891 730.352 110.125C722.594 122.243 713.869 137.049 705.518 148.378C684.524 176.636 655.969 198.387 623.146 211.121Z"/><path fill="#6D6C6C" transform="scale(0.202255 0.202148)" d="M638.746 155.258C642.341 155.252 643.28 155.269 645.676 157.413C645.838 161.769 640.797 165.102 637.401 168.804C635.773 169.626 635.24 169.761 633.549 170.247L631.662 168.942C630.391 163.098 635.007 158.954 638.746 155.258Z"/><path fill="#FAEFEE" transform="scale(0.202255 0.202148)" d="M737.947 843.502C741.087 842.746 744.242 841.67 747.366 842.241C750.248 844.222 751.033 848.159 753.293 850.081C760.068 855.846 769.185 858.218 773.426 866.571C775.071 869.811 775.831 871.907 779.256 871.863C785.037 864.815 784.495 864.98 793.34 868.35C794.801 871.362 798.984 880.876 802.143 880.678C817.744 879.7 813.605 903.547 826.812 906.418C828.624 906.812 833.23 906.261 835.377 906.049C831.58 922.94 823.217 943.522 811.586 957.232C801.777 968.794 771.193 964.24 756.825 966.695C753.532 967.258 748.403 965.695 745.932 963.362C742.612 954.936 754.027 949.583 754.961 943.091L753.979 942.399C740.643 943.278 738.736 957.106 735.749 967.433C728.652 966.324 716.804 966.116 709.307 965.769C709.591 957.596 709.93 951.009 715.692 944.658C717.66 942.49 722.287 939.06 721.511 936.212C718.049 935.449 710.466 938.808 707.887 941.142C700.795 947.56 700.721 957.007 700.181 965.877C698.988 965.337 697.809 964.765 696.647 964.161C686.079 958.593 687.702 948.339 693.172 939.561C707.879 915.957 733.349 923.708 754.821 918.535C747.939 904.156 730.968 889.235 725.832 875.354C726.726 871.124 726.512 868.176 726.437 863.844C728.8 861.942 732.387 857.801 734.578 855.412C734.648 850.701 732.136 844.827 737.947 843.502Z"/><path fill="#D5C3C3" transform="scale(0.202255 0.202148)" d="M734.578 855.412C734.648 850.701 732.136 844.827 737.947 843.502L737.769 844.459C736.011 854.222 740.878 864.761 737.157 868.876C734.929 868.062 735.84 868.727 734.412 866.702C733.916 860.559 738.038 860.138 734.578 855.412Z"/><path fill="#B5B5B4" transform="scale(0.202255 0.202148)" d="M746.212 869.945C746.969 870.688 746.867 870.866 747.323 871.95C747.131 876.978 744.663 879.601 741.652 883.453C741.26 882.994 741.119 882.241 740.904 881.58C741.731 877.987 744.44 873.334 746.212 869.945Z"/><path fill="#B5B5B4" transform="scale(0.202255 0.202148)" d="M732.753 794.989C762.191 833.883 816.728 848.642 862.834 855.92C846.86 871.867 839.525 883.206 835.377 906.049C833.23 906.261 828.624 906.812 826.812 906.418C813.605 903.547 817.744 879.7 802.143 880.678C798.984 880.876 794.801 871.362 793.34 868.35C784.495 864.98 785.037 864.815 779.256 871.863C775.831 871.907 775.071 869.811 773.426 866.571C769.185 858.218 760.068 855.846 753.293 850.081C751.033 848.159 750.248 844.222 747.366 842.241C744.242 841.67 741.087 842.746 737.947 843.502C732.136 844.827 734.648 850.701 734.578 855.412C732.387 857.801 728.8 861.942 726.437 863.844C726.512 868.176 726.726 871.124 725.832 875.354L724.62 875.017C723.896 873.718 721.608 870.757 720.631 869.414C716.873 863.584 717.319 849.151 720.123 843.261C720.16 842.024 720.123 840.871 720.097 839.638C717.539 837.45 716.878 837.913 713.126 837.114C709.285 827.218 726.177 803.11 732.753 794.989Z"/><defs><linearGradient id="gradient_7" gradientUnits="userSpaceOnUse" x1="716.99683" y1="857.36737" x2="727.67896" y2="860.09631"><stop offset="0" stop-color="#8D7C7B"/><stop offset="1" stop-color="#908E92"/></linearGradient></defs><path fill="url(#gradient_7)" transform="scale(0.202255 0.202148)" d="M720.123 843.261L722.281 841.942C722.182 845.715 721.892 848.718 722.889 852.368L723.922 853.44C727.621 852.268 727.398 849.115 730.561 848.252C731.48 854.412 727.068 859.755 726.437 863.844C726.512 868.176 726.726 871.124 725.832 875.354L724.62 875.017C723.896 873.718 721.608 870.757 720.631 869.414C716.873 863.584 717.319 849.151 720.123 843.261Z"/><path fill="#907271" transform="scale(0.202255 0.202148)" d="M713.126 837.114C716.605 835.144 717.705 832.234 721.081 831.149C723.797 832.603 722.52 838.989 722.281 841.942L720.123 843.261C720.16 842.024 720.123 840.871 720.097 839.638C717.539 837.45 716.878 837.913 713.126 837.114Z"/><path fill="#FAEFEE" transform="scale(0.202255 0.202148)" d="M838.783 933.436C848.387 909.621 852.898 876.902 874.079 861.05C876.292 868.858 887.913 903.872 898.521 899.821C900.111 898.001 901.013 896.96 902.333 894.944C910.275 904.209 915.651 910.389 926.235 916.974C915.297 922.483 905.563 927.071 895.551 934.22C881.873 934.133 849.811 938.062 838.783 933.436Z"/><path fill="#A09F9F" transform="scale(0.202255 0.202148)" d="M705.582 166.423L707.197 165.094C709.037 171.262 710.073 174.294 713.879 179.504C708.967 184.214 709.483 186.533 706.3 190.683C703.235 195.152 696.619 191.515 688.185 198.221C687.771 194.569 686.732 191.826 685.595 188.346C691.852 180.501 698.638 173.631 705.582 166.423Z"/><path fill="#655257" transform="scale(0.202255 0.202148)" d="M705.582 166.423L707.197 165.094C709.037 171.262 710.073 174.294 713.879 179.504C708.967 184.214 709.483 186.533 706.3 190.683C704.921 182.617 705.965 174.67 705.582 166.423Z"/><path fill="#D5C3C3" transform="scale(0.202255 0.202148)" d="M729.417 129.504C730.831 132.381 731.235 138.894 733.537 144.537C731.74 142.668 729.994 140.751 728.301 138.788C722.886 144.679 718.968 153.883 713.711 156.765C718.333 148.029 724.045 137.737 729.417 129.504Z"/><path fill="#655257" transform="scale(0.202255 0.202148)" d="M720.631 869.414C721.608 870.757 723.896 873.718 724.62 875.017C722.845 878.999 721.032 882.964 719.182 886.911C717.511 884.27 716.592 882.893 714.59 880.439C719.617 875.847 719.673 876.449 720.631 869.414Z"/><path fill="#D5C3C3" transform="scale(0.202255 0.202148)" d="M861.007 153.35C863.898 154.133 864.341 153.77 866.264 155.731C866.555 157.563 866.788 159.201 866.981 161.046C866.325 163.005 865.88 164.864 864.663 166.503C863.616 161.445 863.233 158.088 860.242 153.888L861.007 153.35Z"/><defs><linearGradient id="gradient_8" gradientUnits="userSpaceOnUse" x1="1092.4016" y1="630.92023" x2="864.37494" y2="759.24243"><stop offset="0" stop-color="#6D6D6D"/><stop offset="1" stop-color="#A7A6A6"/></linearGradient></defs><path fill="url(#gradient_8)" transform="scale(0.202255 0.202148)" d="M884.275 524.42C884.18 522.13 884.233 521.745 884.787 519.519L885.443 519.685L886.003 522.013C888.786 531.993 891.652 541.975 894.25 552.024C895.455 556.685 895.882 567.37 897.554 570.043C905.337 573.711 916.58 558.249 919.075 551.837C920.967 546.825 922.756 541.776 924.441 536.691L925.502 536.32C929.858 541.121 927.661 558.479 934.649 558.782C939.51 558.993 942.879 553.201 948.952 556.102C952.891 560.851 962.776 581.034 956.856 585.995C952.627 585.731 951.435 582.185 948.104 582.226C944.576 589.654 955.38 595.162 956.776 599.709C966.96 632.886 980.502 666.354 1005.31 691.445C1013.57 699.775 1022.8 707.647 1031.15 715.991C1036.91 721.749 1050.73 738.656 1058.03 740.439L1059.05 739.68C1059.17 733.939 1053.53 725.903 1050.32 721.217C1070.57 698.366 1082.52 683.529 1086.72 651.182C1087.78 643.047 1087.25 634.985 1087.88 627.161C1101.21 639.746 1105.77 647.631 1106.54 666.897C1106.75 672.28 1106.04 683.871 1107.01 688.387C1110.49 684.469 1118.85 673.168 1124.4 677.27C1126.88 682.48 1123.82 688.848 1122.48 693.69C1119.26 705.302 1112.14 709.586 1106.27 718.48C1105.47 721.717 1105.17 722.453 1106.17 725.777C1110.77 724.028 1117.53 720.003 1120.55 725.117C1120.68 740.428 1091.66 749.028 1080.7 753.977L1080.69 755.377C1085.05 758.793 1088.2 760.806 1093.51 762.625L1093.68 765.523C1079.33 765.115 1073.24 774.14 1059.41 761.566C1057.09 759.714 1055.07 757.786 1052.16 757.173C1050.96 757.592 1050.15 757.558 1049.99 758.535C1048.12 769.97 1051.04 785.975 1049.95 797.674C1048.39 814.259 1043.08 826.615 1038.93 842.096C1035.05 856.553 1035.65 872.884 1036.78 887.489C1038.36 895.101 1044.64 908.125 1044.28 914.52C1043.73 924.414 1035.22 958.155 1028.53 964.048C1015.3 975.698 973.345 974.751 956.777 974.54C957.628 968.443 957.9 962.214 962.591 957.66C964.57 955.739 968.161 952.28 967.145 949.519C953.769 943.766 949.525 966.435 947.953 975.375C941.885 975.506 923.023 976.557 918.308 973.787C915.1 964.89 931.291 948.318 926.714 943.859C904.84 944.643 916.286 988.953 896.068 967.855C895.66 932.157 928.255 929.49 956.052 926.369C948.116 917.014 943.204 916.451 933.061 910.997C916.211 901.936 906.953 878.111 899.006 861.219L897.644 862.311C896.871 849.33 899.145 843.046 905.023 832.19C909.461 823.945 910.189 815.192 911.816 806.12C913.635 795.979 919.675 791.967 911.255 784.59C916.523 776.707 933.966 767.665 934.831 761.15C930.616 756.822 921.395 764.645 917.832 767.357C914.774 762.896 913.403 760.515 910.976 755.673C911.478 749.989 911.84 744.294 912.061 738.593C909.409 740.32 905.213 743.835 902.618 745.155C896.546 748.244 889.296 750.71 882.826 753.375C892.364 741.705 893.672 744.718 899.626 728.083L901.019 724.886C900.315 720.855 898.927 715.939 894.79 714.72C892.08 716.059 892.388 716.473 890.558 719.152L877.629 719.198C879.711 715.864 882.415 712.289 884.737 709.064C875.81 703.952 874.095 702.343 868.896 693.367L870.526 691.142L874.651 686.653C878.7 688.071 880.264 688.959 884.724 689.488C898.067 691.107 911.51 687.397 922.133 679.163L930.271 669.197C937.466 657.573 943.431 635.587 936.955 622.626L942.035 617.458C936.289 608.175 935.093 601.707 934.13 590.894C915.927 586.307 905.865 585.846 888.429 582.439C885.475 583.748 884.86 584.012 882.241 586.09C868.557 587.89 857.503 581.986 845.263 576.756C845.282 576.701 845.302 576.645 845.321 576.589C845.261 571.834 847.494 569.162 849.57 565.1C851.958 563.535 855.042 562.249 857.557 560.782C872.337 552.166 883.262 542.07 884.275 524.42Z"/><path fill="#FAEFEE" transform="scale(0.202255 0.202148)" d="M897.644 862.311C896.871 849.33 899.145 843.046 905.023 832.19C907.074 832.397 907.64 831.96 909.051 833.688C913.782 839.482 916.607 855.064 921.986 858.844L922.502 858.922C923.332 859.056 924.082 859.219 924.902 859.394L924.747 860.196L926.022 861.508C927.45 862.406 927.624 863.223 928.562 864.814C930.817 862.291 928.182 860.964 930.81 858.411C933.231 857.651 935.15 857.204 936.465 859.608C938.508 866.158 943.423 885.723 952.474 884.866C955.082 884.619 959.85 876.992 962.476 879.128C972.817 887.54 977.972 886.904 983.832 899.275C985.468 894.836 987.13 886.752 992.934 888.301C997.51 892.394 999.279 897.734 1004.66 898.051C1007.75 895.972 1005.21 892.829 1007.71 889.274C1014.66 887.494 1020.38 894.577 1026.37 893.206C1029.23 892.552 1031.94 888.976 1036.78 887.489C1038.36 895.101 1044.64 908.125 1044.28 914.52C1043.73 924.414 1035.22 958.155 1028.53 964.048C1015.3 975.698 973.345 974.751 956.777 974.54C957.628 968.443 957.9 962.214 962.591 957.66C964.57 955.739 968.161 952.28 967.145 949.519C953.769 943.766 949.525 966.435 947.953 975.375C941.885 975.506 923.023 976.557 918.308 973.787C915.1 964.89 931.291 948.318 926.714 943.859C904.84 944.643 916.286 988.953 896.068 967.855C895.66 932.157 928.255 929.49 956.052 926.369C948.116 917.014 943.204 916.451 933.061 910.997C916.211 901.936 906.953 878.111 899.006 861.219L897.644 862.311Z"/><path fill="#B5B5B4" transform="scale(0.202255 0.202148)" d="M897.644 862.311C896.871 849.33 899.145 843.046 905.023 832.19C907.074 832.397 907.64 831.96 909.051 833.688C913.782 839.482 916.607 855.064 921.986 858.844L922.502 858.922C923.332 859.056 924.082 859.219 924.902 859.394L924.747 860.196C922.428 862.722 921.492 866.391 918.963 867.673C913.65 867.23 913.126 858.754 912.705 854.47C911.922 846.505 911.18 839.9 907.573 832.598C899.705 843.686 899.166 847.789 899.006 861.219L897.644 862.311Z"/><path fill="#B5B5B4" transform="scale(0.202255 0.202148)" d="M926.022 861.508C927.45 862.406 927.624 863.223 928.562 864.814C930.817 862.291 928.182 860.964 930.81 858.411C933.231 857.651 935.15 857.204 936.465 859.608C933.382 859.314 933.973 858.891 931.76 860.155C929.013 864.407 929.687 872.265 928.24 878.593C927.735 874.235 926.949 865.232 926.022 861.508Z"/><path fill="#B5B5B4" transform="scale(0.202255 0.202148)" d="M1107.01 688.387C1110.49 684.469 1118.85 673.168 1124.4 677.27C1126.88 682.48 1123.82 688.848 1122.48 693.69C1119.26 705.302 1112.14 709.586 1106.27 718.48C1102.51 711.455 1103.96 695.559 1107.01 688.387Z"/><path fill="#D5C3C3" transform="scale(0.202255 0.202148)" d="M1106.17 725.777C1110.77 724.028 1117.53 720.003 1120.55 725.117C1120.68 740.428 1091.66 749.028 1080.7 753.977C1078.85 751.893 1078.16 751.294 1077.24 748.613C1078.37 744.434 1087.58 743.764 1092.13 739.86C1097.48 735.279 1101.42 730.841 1106.17 725.777Z"/><path fill="#D5C3C3" transform="scale(0.202255 0.202148)" d="M1080.69 755.377C1085.05 758.793 1088.2 760.806 1093.51 762.625L1093.68 765.523C1079.33 765.115 1073.24 774.14 1059.41 761.566C1064.3 759.032 1071.27 759.72 1080.69 755.377Z"/><path fill="#907271" transform="scale(0.202255 0.202148)" d="M884.275 524.42C884.18 522.13 884.233 521.745 884.787 519.519L885.443 519.685L886.003 522.013L884.275 524.42Z"/><path fill="#FAEFEE" transform="scale(0.202255 0.202148)" d="M766.455 349.827C768.638 349.477 771.057 349.017 773.193 349.251C775.99 349.559 790.278 353.659 792.025 351.649C799.026 343.596 802.987 346.588 809.707 353.584C844.914 356.011 863.743 365.309 895.513 379.041C927.112 392.698 960.43 401.372 983.7 429.299C988.997 435.655 1008.4 459.759 1001.02 467.1C998.125 464.984 995.388 460.272 992.76 457.44C985.798 449.936 966.866 431.346 956.284 433.644L955.644 434.76C956.571 437.728 966.689 447.711 969.829 452.043C985.511 473.676 984.114 497.51 976.727 521.762C976.344 523.017 974.573 523.738 973.488 524.306C968.251 523.336 968.469 515.456 967.746 510.837C965.079 493.804 955.775 482.088 942.75 471.451C954.991 503.369 956.541 511.199 946.514 544.389L940.299 548.806C939.201 531.186 935.678 516.572 922.733 503.772C920.997 502.055 916.577 496.301 914.703 495.907C912.878 499.058 914.233 503.814 915.277 507.169C920.845 525.066 914.878 539.202 906.415 554.98C900.076 530.355 890.832 508.125 867.264 495.106C829.781 474.4 818.02 487.922 784.85 452.233C780.344 446.201 778.882 435.438 787.724 432.255C790.188 432.042 796.265 430.103 799.011 429.162C812.571 424.55 825.414 419.883 837.148 411.594C847.304 404.419 853.715 392.063 844.623 381.231C837.003 372.152 809.122 358.945 797.352 358.776C774.294 358.445 746.027 355.212 726.712 369.64C711.765 381.224 738.441 409.462 747.91 417.796C755.084 424.11 763.894 428.671 771.333 434.615C772.021 435.881 771.829 439.361 771.482 440.372C765.483 457.859 746.729 470.307 728.582 461.644C722.246 458.619 720.122 455.253 716.398 448.796C706.077 456.017 703.162 460.03 704.651 472.439C697.096 484.257 684.857 488.885 675.877 499.152C669.173 506.816 665.906 517.608 660.665 526.588C650.282 508.395 653.745 486.779 655.376 466.614C636.503 480.431 639.292 493.974 625.514 509.328C622.57 490.548 621.274 466.08 629.6 448.751C633.052 441.568 637.537 435.474 641.098 427.925C618.04 437.724 615.814 448.215 599.114 462.603C603.79 443.48 607.053 431.008 618.432 414.573C626.037 403.589 648.803 393.861 651.044 386.214L650.172 384.956C640.173 380.692 621.831 392.769 610.357 396.696C619.226 382.983 643.458 371.789 658.941 367.45C685.662 359.961 713.083 352.9 740.74 350.114C748.742 349.308 758.314 349.722 766.455 349.827Z"/><path fill="#655257" transform="scale(0.202255 0.202148)" d="M766.455 349.827C768.638 349.477 771.057 349.017 773.193 349.251C775.99 349.559 790.278 353.659 792.025 351.649C799.026 343.596 802.987 346.588 809.707 353.584C801.948 353.91 793.355 354.386 785.706 353.285C779.13 352.339 773.137 350.803 766.455 349.827Z"/><path fill="#D5C3C3" transform="scale(0.202255 0.202148)" d="M784.85 452.233C780.344 446.201 778.882 435.438 787.724 432.255C785.638 435.336 785.455 434.619 785.389 437.852C786.55 439.928 787.371 441.175 788.752 443.115C787.409 447.045 786.831 448.622 784.85 452.233Z"/><path fill="#A09F9F" transform="scale(0.202255 0.202148)" d="M702.347 432.691C705.057 428.985 708.512 421.621 712.187 420.643C713.976 422.547 714.082 428.019 712.298 428.905C707.832 431.122 706.387 429.776 702.364 433.83L702.347 432.691Z"/><path fill="#A09F9F" transform="scale(0.202255 0.202148)" d="M866.252 381.377C871.287 382.666 881.204 387.434 884.935 390.971C877.834 388.769 870.336 387.43 866.252 381.377Z"/><path fill="#907271" transform="scale(0.202255 0.202148)" d="M842.636 436.153C845.35 437.92 848.012 439.209 848.444 442.625C845.883 442.87 845.153 443.173 842.949 442.11C841.808 439.478 842.308 439.231 842.636 436.153Z"/><path fill="#655257" transform="scale(0.202255 0.202148)" d="M702.364 433.83C699.774 434.265 700.358 434.589 698.603 433.541C697.542 431.274 696.958 429.624 698.855 427.836C701.167 429.235 700.993 429.994 702.347 432.691L702.364 433.83Z"/><path fill="#907271" transform="scale(0.202255 0.202148)" d="M856.304 443.545C857.859 447.261 857.58 448.516 855.979 452.21C854.082 448.207 854.677 447.43 856.304 443.545Z"/><path fill="#FAEFEE" transform="scale(0.202255 0.202148)" d="M691.728 735.407C695.196 724.765 715.05 698.268 712.05 690.647C706.876 687.791 697.814 695.382 692.866 693.62L692.518 692.07C695.27 685.084 700.907 678.448 704.146 671.684C708.302 663.002 710.912 655.565 717.72 648.502C720.15 645.982 712.966 639.996 711.827 636.107L712.732 634.765C717.938 632.772 722.325 637.438 726.024 640.654C716.723 690.976 797.291 728.063 835.022 684.457C845.931 694.672 854.272 702.901 868.896 693.367C874.095 702.343 875.81 703.952 884.737 709.064C882.415 712.289 879.711 715.864 877.629 719.198L890.558 719.152C892.388 716.473 892.08 716.059 894.79 714.72C898.927 715.939 900.315 720.855 901.019 724.886L899.626 728.083C893.672 744.718 892.364 741.705 882.826 753.375C889.296 750.71 896.546 748.244 902.618 745.155C905.213 743.835 909.409 740.32 912.061 738.593C911.84 744.294 911.478 749.989 910.976 755.673C913.403 760.515 914.774 762.896 917.832 767.357C893.284 788.546 876.738 811.244 870.688 843.472C867.312 843.39 863.936 843.285 860.56 843.159C818.895 841.559 765.552 823.777 738.338 790.37C732.54 783.252 730.815 768.602 728.485 766.089C721.339 765.865 715.14 779.656 707.645 780.132C693.791 771.472 719.022 729.48 711.105 725.748C705.411 726.15 696.762 732.288 691.728 735.407Z"/><path fill="#B5B5B4" transform="scale(0.202255 0.202148)" d="M899.626 728.083C897.49 727.049 892.591 727.605 890.776 725.319C893.131 724.477 898.246 724.841 901.019 724.886L899.626 728.083Z"/><defs><linearGradient id="gradient_9" gradientUnits="userSpaceOnUse" x1="765.08569" y1="758.68365" x2="776.48932" y2="760.24139"><stop offset="0" stop-color="#432E34"/><stop offset="1" stop-color="#675357"/></linearGradient></defs><path fill="url(#gradient_9)" transform="scale(0.202255 0.202148)" d="M768.786 757.417C768.931 751.752 769.024 742.532 775.5 740.194L776.774 741.332C777.7 744.411 777.506 745.441 777.298 748.548L778.287 754.571C779.312 754.519 782.204 754.434 783.046 754.255L785.516 757.171C785.79 760.074 785.835 762.025 786.892 764.792L784.643 768.41C783.268 770.399 782.05 772.766 779.96 773.638L778.851 773.25C770.449 768.116 772.748 767.286 766.999 761.493L766.065 762.132C763.984 759.736 762.232 760.176 760.203 757.483C763.081 758.105 766.153 759.125 768.786 757.417Z"/><path fill="#D5C3C3" transform="scale(0.202255 0.202148)" d="M778.287 754.571C779.312 754.519 782.204 754.434 783.046 754.255L785.516 757.171C785.79 760.074 785.835 762.025 786.892 764.792L784.643 768.41C783.268 770.399 782.05 772.766 779.96 773.638L778.851 773.25C778.753 772.502 778.863 772.78 778.51 772.145C776.185 767.959 778.321 760.873 778.287 754.571Z"/><path fill="#442627" transform="scale(0.202255 0.202148)" d="M783.046 754.255L785.516 757.171C785.79 760.074 785.835 762.025 786.892 764.792L784.643 768.41C780.675 763.19 780.295 760.154 783.046 754.255Z"/><path fill="#907271" transform="scale(0.202255 0.202148)" d="M768.786 757.417C768.931 751.752 769.024 742.532 775.5 740.194L776.774 741.332C777.7 744.411 777.506 745.441 777.298 748.548C774.951 750.517 770.19 754.706 768.786 757.417Z"/><path fill="#442627" transform="scale(0.202255 0.202148)" d="M758.339 741.055C759.857 743.113 761.33 744.936 762.477 747.223C761.426 751.061 760.869 753.561 760.203 757.483C762.232 760.176 763.984 759.736 766.065 762.132C765.228 763.542 765.153 763.489 763.868 764.548C750.541 763.489 755.37 749.592 758.339 741.055Z"/><path fill="#655257" transform="scale(0.202255 0.202148)" d="M758.339 741.055C760.792 736.623 762.544 733.119 764.678 728.542C764.517 734.802 764.735 741.367 762.477 747.223C761.33 744.936 759.857 743.113 758.339 741.055Z"/><path fill="#442627" transform="scale(0.202255 0.202148)" d="M785.516 757.171L786.008 757.614C789.941 761.102 795.614 762.477 794.312 768.941L793.172 769.083C790.725 767.148 789.04 764.798 786.892 764.792C785.835 762.025 785.79 760.074 785.516 757.171Z"/><path fill="#FAEFEE" transform="scale(0.202255 0.202148)" d="M795.913 586.316C822.831 571.955 879.631 604.473 888.759 595.434C888.83 592.9 888.16 591.815 886.269 589.799C885.019 588.466 883.673 587.226 882.241 586.09C884.86 584.012 885.475 583.748 888.429 582.439C905.865 585.846 915.927 586.307 934.13 590.894C935.093 601.707 936.289 608.175 942.035 617.458L936.955 622.626C943.431 635.587 937.466 657.573 930.271 669.197L922.133 679.163C918.704 674.902 918.28 673.469 913.592 670.516C905.305 676.218 903.363 677.354 893.261 677.85C882.932 678.476 876.413 678.199 866.815 673.601C863.208 671.873 855.398 667.239 851.889 667.49L850.986 668.788C850.793 674.471 856.089 683.652 858.55 689.516C853.567 687.098 852.666 686.907 848.145 683.78C842.332 679.758 836.775 667.161 833.772 665.77C826.734 666.845 823.916 686.934 809.174 691.897C780.289 701.622 798.576 676.335 793.667 664.751C791.744 663.196 792.622 663.621 789.823 663.523C781.931 667.298 784.55 686.886 785.549 694.196C771.151 693.549 767.533 692.438 755.996 683.58C756.968 666.677 760.458 665.42 763.906 651.722L762.735 650.778C752.142 652.44 749.788 673.977 742.666 671.833C734.486 669.369 735.124 654.535 737.106 647.249C745.679 615.722 769.58 601.313 795.913 586.316Z"/><path fill="#A09F9F" transform="scale(0.202255 0.202148)" d="M795.913 586.316C822.831 571.955 879.631 604.473 888.759 595.434C888.83 592.9 888.16 591.815 886.269 589.799C885.019 588.466 883.673 587.226 882.241 586.09C884.86 584.012 885.475 583.748 888.429 582.439C905.865 585.846 915.927 586.307 934.13 590.894C935.093 601.707 936.289 608.175 942.035 617.458L936.955 622.626C943.431 635.587 937.466 657.573 930.271 669.197L922.133 679.163C918.704 674.902 918.28 673.469 913.592 670.516C905.305 676.218 903.363 677.354 893.261 677.85C892.859 673.908 881.021 668.601 877.484 666.731C881.534 665.895 889.442 664.439 887.76 658.62C881.828 653.459 867.406 659.939 862.549 652.363C862.188 645.576 869.186 644.58 865.624 638.394C862.886 636.046 859.307 635.88 855.667 635.272C852.645 637.754 846.846 643 843.002 642.008C840.605 637.34 844.867 628.279 839.737 625.037C837.302 625.155 836.794 625.25 834.449 624.754L833.46 623.167C833.087 620.244 834.206 617.737 835.159 614.952C831.359 612.677 829.18 610.994 825.673 608.243C820.791 610.232 818.019 611.105 812.914 612.462C812.526 608.434 812.659 604.456 812.714 600.414L797.313 600.134C800.227 593.164 801.389 591.738 795.913 586.316Z"/><path fill="#442627" transform="scale(0.202255 0.202148)" d="M936.955 622.626C943.431 635.587 937.466 657.573 930.271 669.197C925.958 666.617 924.598 664.013 921.924 659.869C929.48 646.764 930.598 635.043 936.955 622.626Z"/><path fill="#633F40" transform="scale(0.202255 0.202148)" d="M921.924 659.869C924.598 664.013 925.958 666.617 930.271 669.197L922.133 679.163C918.704 674.902 918.28 673.469 913.592 670.516C917.644 666.652 919.013 664.643 921.924 659.869Z"/><path fill="#FAEFEE" transform="scale(0.202255 0.202148)" d="M715.113 461.815C721.155 473.772 724.35 474.238 736.861 478.968C738.461 479.573 741.815 481.668 741.663 482.692C739.426 496.166 738.44 505.005 743.451 517.975C750.32 535.755 774.271 545.343 791.565 537.985C807.643 531.145 814.494 508.027 820.32 492.397C831.788 493.328 848.402 493.809 858.271 499.41C893.201 519.234 880.691 517.062 869.412 539.823C868.504 541.834 866.798 545.099 864.828 546.092C861.604 543.408 863.815 534.769 862.114 530.153L861.622 530.703C852.621 540.971 849.654 555.307 834.496 560.741C832.027 561.626 830.372 562.808 827.657 562.325C824.898 558.983 829.447 550.054 830.493 545.689C819.152 556.252 816.641 559.904 802.8 568.189C796.46 572.354 789.592 577.876 783.136 581.159L781.772 578.916C779.472 579.45 774.248 579.377 769.918 580.288C762.026 577.291 754.578 573.058 746.849 569.458L750.189 562.048C733.505 558.298 728.788 534.297 716.039 519.855L717.766 543.799C698.162 530.932 701.407 516.535 689.966 500.574C700.57 483.045 710.359 486.146 715.113 461.815Z"/><path fill="#442627" transform="scale(0.202255 0.202148)" d="M750.189 562.048C751.44 556.33 743.94 557.859 744.337 548.767L745.357 547.611C753.237 547.636 762.05 566.235 774.524 570.99C781.028 566.954 796.635 556.23 803.475 556.661C805.895 559.236 802.662 562.398 800.599 564.526L802.8 568.189C796.46 572.354 789.592 577.876 783.136 581.159L781.772 578.916C779.472 579.45 774.248 579.377 769.918 580.288C762.026 577.291 754.578 573.058 746.849 569.458L750.189 562.048Z"/><path fill="#D5C3C3" transform="scale(0.202255 0.202148)" d="M800.599 564.526L802.8 568.189C796.46 572.354 789.592 577.876 783.136 581.159L781.772 578.916C781.911 577.514 781.94 577.613 782.803 576.477C791.026 573.429 794.045 567.806 800.599 564.526Z"/><path fill="#D5C3C3" transform="scale(0.202255 0.202148)" d="M862.114 530.153L864.491 529.276C867.749 531.26 866.49 535.871 869.412 539.823C868.504 541.834 866.798 545.099 864.828 546.092C861.604 543.408 863.815 534.769 862.114 530.153Z"/><path fill="#FAEFEE" transform="scale(0.202255 0.202148)" d="M638.524 553.86C654.199 550.26 670.662 553.03 684.294 561.562C689.315 564.701 695.186 568.986 700.017 572.496C697.019 578.57 693.789 585.086 692.194 591.689C682.915 590.903 676.959 590.584 667.684 591.886C664.058 600.066 664.901 604.068 670.251 611.061C663.471 624.034 658.171 645.156 642.748 650.588C639.943 651.577 636.332 651.854 633.648 650.423C626.238 642.992 633.242 623.366 628.708 619.252C614.379 621.938 627.077 647.922 619.786 653.54C617.447 655.342 604.227 654.418 600.325 652.78C585.481 646.549 599.645 620.653 597.111 613.93C584.641 609.297 587.914 637.773 581.622 642.297L580.016 641.811C565.982 629.425 576.069 601.973 585.325 589.516C600.018 569.742 613.66 558.267 638.524 553.86Z"/><path fill="#B5B5B4" transform="scale(0.202255 0.202148)" d="M638.524 553.86C654.199 550.26 670.662 553.03 684.294 561.562C689.315 564.701 695.186 568.986 700.017 572.496C697.019 578.57 693.789 585.086 692.194 591.689C682.915 590.903 676.959 590.584 667.684 591.886C664.708 574.041 653.121 569.542 637.249 572.207C635.771 572.455 632.754 572.55 631.359 571.949C632.394 569.215 639.361 566.394 641.952 565.295C640.982 562.459 639.794 555.238 638.524 553.86Z"/><path fill="#FAEFEE" transform="scale(0.202255 0.202148)" d="M873.738 226.431L874.886 227.462C877.563 234.404 867.184 245.087 870.607 251.817C873.865 253.911 879.536 250.116 882.012 247.404C895.462 232.676 954.739 229.239 967.83 244.786L967.686 246.17C960.882 250.325 936.631 245.433 933.174 250.012C937.225 253.749 950.06 254.756 955.825 256.79C964.411 259.819 993.687 272.187 993.263 282.666C988.109 284.797 976.956 273.009 970.96 273.905C971.986 277.514 987.519 290.748 991.321 294.303C995.685 298.848 1005.37 308.17 1003.41 314.861L1001.68 315.391C995.66 314.163 990.488 308.648 985.399 305.145C950.65 281.225 907.483 280.633 869.489 297.109C861.99 299.993 855.376 308.198 847.413 309.59C840.874 310.733 837.289 298.113 837.171 293.36C836.533 267.706 858.179 244.475 873.738 226.431Z"/><path fill="#FAEFEE" transform="scale(0.202255 0.202148)" d="M697.417 210.647C728.654 214.559 740.642 224.398 760.619 246.62C760.568 234.122 757.927 223.979 756.492 211.713C776.592 229.686 788.166 258.416 788.677 285.078C788.434 303.452 777.135 301.21 765.793 292.729C755.746 285.216 743.595 277.134 732.234 271.999C708.695 264.823 689.506 265.064 665.596 271.811C660.3 273.306 652.311 277.439 647.134 277.43L646.315 276.406C647.695 271.315 660.504 262.776 664.958 259.183C669.406 255.595 681.231 254.305 684.105 249.266L683.369 246.728C676.996 238.909 657.086 248.881 654.716 241.756C655.929 239.879 657.659 238.151 659.708 237.271C680.806 228.211 700.103 228.518 721.171 234.795C711.707 221.601 712.036 223.773 697.973 216.763C696.845 215.109 697.305 212.765 697.417 210.647Z"/><path fill="#655257" transform="scale(0.202255 0.202148)" d="M517.329 834.551C520.536 815.093 527.951 794.22 529.938 774.47C532.468 749.32 533.837 723.763 538.771 698.851C540.598 689.629 552.476 645.46 560.022 643.207C563.597 648.63 556.241 657.72 554.576 662.669C545.481 689.702 540.373 720.222 539.608 748.772C539.451 754.625 537.762 763.528 536.872 769.53C531.424 806.254 526.772 851.6 497.31 877.748C456.699 912.931 411.955 901.671 380.6 862.374C377.107 857.996 377.951 854.171 375.105 849.585C366.784 833.917 359.39 810.167 358.115 792.476C356.922 775.921 353.275 757.402 352.834 741.332C352.693 734.085 352.674 726.838 352.777 719.591C353.107 705.507 353.044 703.117 349.293 689.147C350.577 687.999 351.093 688.363 353.28 688.171L354.411 688.405C354.99 688.807 355.146 688.89 355.705 689.404C359.772 693.155 361.239 758.484 361.685 768.017C363.088 798.063 369.674 825.017 384.118 851.458C389.345 861.026 395.351 870.397 403.534 877.724C415.3 888.26 429.674 894.24 445.508 893.417C471.448 892.068 488.214 882.194 501.123 859.494C506.126 850.698 510.49 842.134 517.329 834.551Z"/><defs><linearGradient id="gradient_10" gradientUnits="userSpaceOnUse" x1="772.60052" y1="469.08392" x2="786.94214" y2="527.74377"><stop offset="0" stop-color="#F57F80"/><stop offset="1" stop-color="#F4A193"/></linearGradient></defs><path fill="url(#gradient_10)" transform="scale(0.202255 0.202148)" d="M782.68 467.365C793.126 473.205 801.993 479.294 810.622 487.548C809 494.11 807.477 499.127 805.141 505.581C802.218 518.782 781.088 539.019 766.386 530.104C738.05 512.923 744.868 478.025 773.989 467.369C774.652 473.565 773.736 490.318 773.716 497.903C775.203 497.397 775.953 497.142 777.396 496.422L778.047 497.479C781.975 484.115 782.046 481.397 782.68 467.365Z"/><path fill="#442627" transform="scale(0.202255 0.202148)" d="M773.716 497.903C775.203 497.397 775.953 497.142 777.396 496.422L778.047 497.479C777.541 499.926 777.115 503.892 774.699 504.885C773.347 502.804 773.704 500.508 773.716 497.903Z"/><defs><linearGradient id="gradient_11" gradientUnits="userSpaceOnUse" x1="727.09882" y1="556.39435" x2="751.82959" y2="606.70343"><stop offset="0" stop-color="#ACABAA"/><stop offset="1" stop-color="#D0CFCF"/></linearGradient></defs><path fill="url(#gradient_11)" transform="scale(0.202255 0.202148)" d="M724.596 555.91C733.093 562.824 736.689 565.567 746.849 569.458C754.578 573.058 762.026 577.291 769.918 580.288C774.248 579.377 779.472 579.45 781.772 578.916L783.136 581.159C768.027 588.642 753.221 605.82 737.132 616.131C727.339 610.201 715.302 603.998 705.086 598.456C710.281 595.642 722.687 589.949 722.007 582.935C715.146 579.897 701.433 591.78 697.558 589.279C698.746 585.257 706.311 582.834 709.737 580.138C714.101 576.705 710.517 572.94 711.17 569.991C712.087 565.854 721.322 558.307 724.596 555.91Z"/><path fill="#FAEFEE" transform="scale(0.202255 0.202148)" d="M911.255 784.59C919.675 791.967 913.635 795.979 911.816 806.12C910.189 815.192 909.461 823.945 905.023 832.19C899.145 843.046 896.871 849.33 897.644 862.311C896.093 868.68 895.631 876.758 895.341 883.297L888.429 876.799C879.732 834.287 881.859 817.516 911.255 784.59Z"/><path fill="#FAEFEE" transform="scale(0.202255 0.202148)" d="M765.451 370.554C766.576 370.493 767.701 370.452 768.827 370.43C778.79 370.227 806.675 371.292 813.71 378.04L813.741 379.547C810.13 382.924 804.066 382.913 799.09 383.46C779.105 385.139 769.006 383.372 749.418 378.573L754.296 372.525C758.216 371.527 761.44 371.114 765.451 370.554Z"/><path fill="#6D6C6C" transform="scale(0.202255 0.202148)" d="M310.797 642.702C325.261 641.679 342.076 635.252 355.816 640.756C360.535 642.647 366.458 646.517 363.598 652.322C358.403 654.964 356.229 651.503 353.015 647.632C343.574 647.154 335.236 646.863 326.063 649.487C320.545 655.09 319.068 657.096 316.066 664.34C315.671 667.839 315.672 670.336 313.789 673.305L312.671 673.813C310.666 671.966 310.435 670.094 309.711 667.246C310.218 659.072 310.58 650.89 310.797 642.702Z"/><path fill="#636364" transform="scale(0.202255 0.202148)" d="M309.711 667.246C310.435 670.094 310.666 671.966 312.671 673.813L313.789 673.305C315.672 670.336 315.671 667.839 316.066 664.34C316.812 671.266 317.278 677.215 319.393 683.92C331.524 694.654 333.888 691.677 347.144 696.186C332.975 699.757 320.729 698.487 306.39 697.756C307.177 687.2 308.357 677.713 309.711 667.246Z"/><path fill="#907271" transform="scale(0.202255 0.202148)" d="M670.907 624.342C676.792 617.006 678.019 616.132 687.286 618.435L689.42 619.955C694.047 622.908 701.388 626.761 703.745 631.482C703.534 634.09 703.918 633.096 702.458 635.319C696.361 638.417 693.812 632.39 687.828 634.762C687.931 634.721 686.432 635.009 686.509 634.996L685.177 635.381L683.718 636.553C684.781 637.574 685.615 637.551 687.077 637.81C684.111 638.252 681.399 638.445 678.796 639.957C677.033 638.641 676.933 638.443 675.614 636.642C675.51 633.866 675.452 634.828 677.227 632.08C675.35 629.59 672.92 626.788 670.907 624.342Z"/><path fill="#D5C3C3" transform="scale(0.202255 0.202148)" d="M689.42 619.955C694.047 622.908 701.388 626.761 703.745 631.482C703.534 634.09 703.918 633.096 702.458 635.319C696.361 638.417 693.812 632.39 687.828 634.762C687.931 634.721 686.432 635.009 686.509 634.996C687.369 629.989 688.151 624.865 689.42 619.955Z"/><path fill="#D5C3C3" transform="scale(0.202255 0.202148)" d="M670.907 624.342C676.792 617.006 678.019 616.132 687.286 618.435C682.248 622.891 680.679 623.828 679.17 630.514L677.227 632.08C675.35 629.59 672.92 626.788 670.907 624.342Z"/><path fill="#655257" transform="scale(0.202255 0.202148)" d="M679.17 630.514C681.828 629.177 681.399 628.813 683.503 629.419C684.445 631.684 684.665 633.021 685.177 635.381L683.718 636.553C684.781 637.574 685.615 637.551 687.077 637.81C684.111 638.252 681.399 638.445 678.796 639.957C677.033 638.641 676.933 638.443 675.614 636.642C675.51 633.866 675.452 634.828 677.227 632.08L679.17 630.514Z"/><path fill="#FAEFEE" transform="scale(0.202255 0.202148)" d="M720.329 303.327C741.28 310.876 729.206 319.021 717.709 327.526C714.539 328.367 708.233 328.128 707.107 324.83C703.527 314.341 713.473 307.085 720.329 303.327Z"/><path fill="#FAEFEE" transform="scale(0.202255 0.202148)" d="M883.607 320.268C899.568 320.27 903.859 331.021 889.488 340.216C875.473 343.605 868.837 329.409 883.607 320.268Z"/><path fill="#D5C3C3" transform="scale(0.202255 0.202148)" d="M849.57 565.1C847.494 569.162 845.261 571.834 845.321 576.589C845.302 576.645 845.282 576.701 845.263 576.756C838.707 575.189 829.45 574.242 822.229 572.83C834.741 570.876 837.836 570.224 849.57 565.1Z"/><path fill="#D5C3C3" transform="scale(0.202255 0.202148)" d="M687.077 637.81C691.515 640.759 693.374 642.548 697.169 646.143L686.295 647.169L678.796 639.957C681.399 638.445 684.111 638.252 687.077 637.81Z"/><path fill="#442627" transform="scale(0.202255 0.202148)" d="M353.28 688.171C352.066 683.735 353.126 680.427 357.195 678.363C359.508 678.488 359.624 678.446 361.335 679.867C362.854 684.621 358.29 686.958 354.411 688.405L353.28 688.171Z"/><path fill="#D5C3C3" transform="scale(0.202255 0.202148)" d="M870.526 691.142C865.242 688.503 864.772 687.046 862.123 681.923L874.651 686.653L870.526 691.142Z"/><path fill="#655257" transform="scale(0.202255 0.202148)" d="M335.084 650.743C338.792 650.604 342.116 649.776 344.698 652.614L344.499 654.926C341.499 655.356 339.355 655.94 336.47 655.112C334.676 653.17 335.201 654.022 335.084 650.743Z"/><path fill="#655257" transform="scale(0.202255 0.202148)" d="M1093.51 762.625L1104.55 762.551C1101.13 764.057 1097.51 765.551 1093.68 765.523L1093.51 762.625Z"/><defs><linearGradient id="gradient_12" gradientUnits="userSpaceOnUse" x1="466.93826" y1="518.78748" x2="491.40228" y2="473.68549"><stop offset="0" stop-color="#6A3232"/><stop offset="1" stop-color="#835554"/></linearGradient></defs><path fill="url(#gradient_12)" transform="scale(0.202255 0.202148)" d="M476.692 468.741C481.892 468.807 485.778 468.213 489.647 471.701C494.057 482.637 463.914 495.51 457.342 505.458C468.006 507.2 488.47 509.475 495.809 516.884L495.972 518.16C490.914 521.52 450.973 512.464 445.84 508.531C445.42 495.848 473.506 483.698 476.318 478.167C476.242 475.697 476.102 475.315 475.249 472.983L476.692 468.741Z"/><path fill="#633F40" transform="scale(0.202255 0.202148)" d="M428.633 652.653C434.352 652.143 462.988 650.607 464.961 656.629C462.393 659.866 455.261 659.802 451.214 660.225C443.388 660.39 419.77 664.591 415.782 658.51C416.464 651.128 423.092 652.71 428.633 652.653Z"/><path fill="#633F40" transform="scale(0.202255 0.202148)" d="M400.572 681.09C403.176 680.835 405.602 680.616 408.154 681.477C415.237 683.867 435.11 694.392 431.811 703.739C424.546 702.463 405.603 692.608 401.18 686.059C399.714 683.887 400.141 683.207 400.572 681.09Z"/><path fill="#633F40" transform="scale(0.202255 0.202148)" d="M475.249 472.983C468.266 473.464 452.878 475.467 448.315 469.583C447.901 466.796 447.663 467.831 448.905 465.526C455.685 464.391 468.492 467.898 476.692 468.741L475.249 472.983Z"/><defs><linearGradient id="gradient_13" gradientUnits="userSpaceOnUse" x1="991.30756" y1="475.25305" x2="992.90985" y2="472.50656"><stop offset="0" stop-color="#FFFAFE" stop-opacity="0"/><stop offset="1" stop-color="#F8EFEF" stop-opacity="0.035294119"/></linearGradient></defs><path fill="url(#gradient_13)" transform="scale(0.202255 0.202148)" d="M990.604 475.662L990.53 472.08L991.336 471.365C993.286 472.66 993.435 473.307 994.628 475.429C992.065 476.435 993.133 476.4 990.604 475.662Z"/><defs><linearGradient id="gradient_14" gradientUnits="userSpaceOnUse" x1="645.75977" y1="222.32063" x2="645.75977" y2="218.63983"><stop offset="0" stop-color="black" stop-opacity="0"/><stop offset="1" stop-color="#2B292B" stop-opacity="0.0078431377"/></linearGradient></defs><path fill="url(#gradient_14)" transform="scale(0.202255 0.202148)" d="M645.705 217.418C646.517 217.586 646.703 217.799 647.465 218.219C646.779 219.962 646.71 220.166 646.467 222.043L646.414 222.482L645.798 223.257L645.078 222.702L645.705 217.418Z"/></svg>